<?xml version="1.0" encoding="utf-8"?>
<!-- Generator: Adobe Illustrator 22.1.0, SVG Export Plug-In . SVG Version: 6.00 Build 0)  -->
<svg version="1.1" id="Layer_1" xmlns="http://www.w3.org/2000/svg" xmlns:xlink="http://www.w3.org/1999/xlink" x="0px" y="0px"
	 viewBox="0 0 295.6 119.4" style="enable-background:new 0 0 295.6 119.4;" xml:space="preserve">
<style type="text/css">
	.st0{enable-background:new    ;}
	.st1{fill:#EAAD9D;}
	.st2{fill:#F15A29;}
</style>
<g class="st0">
	<path class="st1" d="M0.4,105.8l25.4-47.5h1l25.4,47.5H41.8l-3.9-7.5H14.5l-3.8,7.5H0.4z M19.1,90.4h14.2L26.3,76L19.1,90.4z"/>
</g>
<g class="st0">
	<path class="st1" d="M68.6,106.6c-3.2,0-6.1-0.5-8.8-1.4c-2.6-1-4.9-2.3-6.7-4c-1.9-1.7-3.3-3.8-4.3-6.3c-1-2.5-1.5-5.2-1.5-8.2
		V58.3h9.5v28.3c0,2.4,0.4,4.3,1.2,5.9s1.8,2.8,3,3.7c1.2,0.9,2.5,1.5,3.9,1.9c1.4,0.3,2.6,0.5,3.7,0.5c1.1,0,2.3-0.2,3.7-0.5
		c1.4-0.3,2.7-1,3.9-1.9c1.2-0.9,2.2-2.1,3-3.7s1.2-3.5,1.2-5.9V58.3H90v28.3c0,3-0.5,5.8-1.5,8.2c-1,2.5-2.4,4.6-4.3,6.3
		c-1.9,1.7-4.1,3.1-6.7,4C74.8,106.1,71.9,106.6,68.6,106.6z"/>
</g>
<g class="st0">
	<path class="st1" d="M111.7,105.8H92.2V58.2h19.6c7.1,0,12.9,2,17.5,6c2.4,2.1,4.3,4.7,5.5,7.7c1.2,3,1.9,6.4,1.9,10.1
		c0,3.8-0.6,7.2-1.9,10.2c-1.2,3-3.1,5.6-5.5,7.7c-2.2,1.9-4.8,3.4-7.8,4.4S115.3,105.8,111.7,105.8z M101.7,97.7h10.1
		c1.8,0,3.6-0.2,5.4-0.6c1.8-0.4,3.5-1.2,4.9-2.3c1.5-1.1,2.7-2.7,3.6-4.8c1-2,1.4-4.7,1.4-8c0-3.3-0.5-6-1.4-8
		c-1-2.1-2.2-3.6-3.7-4.8c-1.5-1.1-3.1-1.9-5-2.3c-1.8-0.4-3.6-0.6-5.3-0.6h-10.1V97.7z"/>
</g>
<g class="st0">
	<path class="st1" d="M146.8,66.3v11.9h24v8.2h-24v11.2h27.1v8.2h-36.6V58.2h36.6v8.1H146.8z"/>
</g>
<g class="st0">
	<path class="st1" d="M213.2,66.3H199v39.5h-9.5V66.3h-14.3v-8.1h37.9V66.3z"/>
</g>
<g class="st0">
	<path class="st1" d="M252.1,66.3h-14.2v39.5h-9.5V66.3h-14.3v-8.1h37.9V66.3z"/>
</g>
<g class="st0">
	<path class="st1" d="M263.4,66.3v11.9h24v8.2h-24v11.2h27.1v8.2h-36.6V58.2h36.6v8.1H263.4z"/>
</g>
<g>
	<g>
		<path class="st2" d="M7.9,62.6C26.1,42.5,45,23,64.6,4.2c-1.3-1-2.6-2-3.9-3c-8.9,13.3-19.1,26.6-25.2,41.4
			c-1.5,3.7-2.8,7.5-3.6,11.4c-0.5,2.4-1.5,5.8-0.6,8.2c2,5.1,7.6,2.6,10.2-0.2c2.1-2.4-1.4-5.9-3.5-3.5c-2.9,3.3-1.5-2-1.1-3.9
			c0.5-2.5,1.3-4.9,2.1-7.3c2-5.5,4.8-10.6,7.8-15.6C52.5,22,58.9,12.9,65,3.7c1.6-2.4-1.9-4.9-3.9-3C41.5,19.5,22.6,38.9,4.3,59
			C2.2,61.4,5.7,65,7.9,62.6L7.9,62.6z"/>
	</g>
</g>
<g>
	<g>
		<path class="st2" d="M25,44.7c4-1,8-1.7,12.1-2c3.2-0.3,3.2-5.3,0-5c-4.5,0.4-9,1.1-13.4,2.2C20.5,40.7,21.8,45.5,25,44.7L25,44.7
			z"/>
	</g>
</g>
<g>
	<g>
		<path class="st2" d="M41.5,39.1c-0.2,6.2-0.4,12.3-0.6,18.5c-0.1,2.7,3.3,3.1,4.7,1.3c9-12.3,19.4-23.5,31-33.4
			c-1.4-0.8-2.8-1.6-4.2-2.4c-1.5,7.7-3.5,15.4-4.6,23.1c-0.6,3.9,0.4,8,5.2,7.8c5-0.3,9.2-5.7,12.1-9.1c4.2-4.9,7.7-10.3,10.5-16.2
			c-1.5-0.6-3-1.3-4.6-1.9c-1.5,9.9-3.9,19.6-7.3,29c-1,2.8,3.1,4.2,4.6,1.9c6.2-9.3,13.2-17.9,20.9-26c-1.4-0.6-2.8-1.2-4.3-1.8
			c0.3,6.5-1.8,21,8.8,18.8c4.7-0.9,9-4.3,13-6.7c5.6-3.2,11.1-6.4,16.7-9.7c2-1.1,1.3-5-1.3-4.7c-7.3,1-13.8,4.2-18.4,10
			c-3.2,3.9-5.8,10.3-2.9,15.1c3.5,5.7,10.3,3.1,14.3-0.5c6.1-5.4,10.5-12.4,13.4-19.9c1-2.4-2.5-4.1-4.2-2.4
			c-5.1,5.2-11,12.4-7.7,20.2c2.7,6.6,10.2,7.8,16.5,6.7c8-1.4,15.7-6.4,21.5-11.9c6-5.6,12.4-13.3,10.8-22.1
			c-0.6-3.2-5.4-1.8-4.8,1.3c1.2,6.4-4.7,12.6-9,16.7s-9.4,7.6-15,9.7c-4,1.5-9.6,2.8-13.4,0.2c-6.9-4.9,0.7-13.4,4.5-17.3
			c-1.4-0.8-2.8-1.6-4.2-2.4c-1.9,4.7-4.4,9.1-7.6,13c-2,2.4-10.1,11.2-11.5,4.5c-0.7-3.4,2.4-7.4,4.6-9.6c3.5-3.5,8-5.6,12.9-6.3
			c-0.4-1.6-0.8-3.1-1.3-4.7c-6.7,3.9-13.4,7.7-20.1,11.6c-2.6,1.5-8.1,6.4-10.5,2.2c-0.6-1.1-0.2-3.8-0.2-5c-0.1-2.3-0.2-4.6-0.3-7
			c-0.1-2.1-2.7-3.4-4.3-1.8c-8,8.4-15.2,17.4-21.7,27c1.5,0.6,3,1.3,4.6,1.9c3.3-9.4,5.8-19.1,7.3-29c0.4-2.5-3.2-4.7-4.6-1.9
			C87.7,33.5,83,40.3,77,46c-0.7,0.7-1.5,1.4-2.3,2.1c-2.2,0.2-2.8-0.6-1.8-2.5c-0.2-1.9,1-4.8,1.3-6.7c1-4.8,1.9-9.6,2.9-14.5
			c0.5-2.5-2.3-4.1-4.2-2.4C61,32.2,50.4,43.7,41.2,56.4c1.6,0.4,3.1,0.8,4.7,1.3c0.2-6.2,0.4-12.3,0.6-18.5
			C46.6,35.9,41.6,35.9,41.5,39.1L41.5,39.1z"/>
	</g>
</g>
</svg>
